<?xml version="1.0" encoding="utf-8"?>
<!-- Generator: Adobe Illustrator 18.1.0, SVG Export Plug-In . SVG Version: 6.00 Build 0)  -->
<svg version="1.1" xmlns="http://www.w3.org/2000/svg" xmlns:xlink="http://www.w3.org/1999/xlink" x="0px" y="0px"
	 viewBox="-58 355 433 151.9" enable-background="new -58 355 433 151.9" xml:space="preserve">
<g id="Layer_1">
	<path fill="#A6A8AB" d="M30.9,386.9c1-2,1.6-4.3,1.6-6.7c0-8.3-6.8-15.1-15.1-15.1c-8.3,0-15.1,6.8-15.1,15.1
		c0,8.3,6.8,15.1,15.1,15.1c0.5,0,1.1,0,1.6-0.1c5.1,8.7,11,22.2,10.2,36.8c-0.9,14.8-6.2,27.6-10.7,35.9c-0.3,0-0.7-0.1-1-0.1
		c-8.3,0-15.1,6.8-15.1,15.1c0,8.3,6.8,15.1,15.1,15.1c8.3,0,15.1-6.8,15.1-15.1c0-2.6-0.7-5.1-1.8-7.2c5.4-9.7,11.9-24.9,12.9-42.9
		C44.8,414,37.3,397.3,30.9,386.9z M17.4,385.3c-2.8,0-5.2-2.3-5.2-5.2c0-2.9,2.3-5.2,5.2-5.2c2.9,0,5.2,2.3,5.2,5.2
		C22.6,383,20.3,385.3,17.4,385.3z M17.4,488.1c-2.8,0-5.2-2.3-5.2-5.2c0-2.8,2.3-5.2,5.2-5.2c2.9,0,5.2,2.3,5.2,5.2
		C22.6,485.7,20.3,488.1,17.4,488.1z"/>
	<path fill="#929497" d="M26.9,413.2c0.3,1,0.8,3.1,0.8,3.1s2.4-0.6,6.5-0.8c5.3-0.2,8.1,0,8.1,0s-0.7-3.2-1.1-4.7
		C38.8,401.3,24.9,406.2,26.9,413.2z"/>
	<polygon fill="none" points="-27,405.9 17.4,380.2 61.9,405.9 61.9,457.2 17.4,482.9 -27,457.2 	"/>
	<path fill="#58595B" d="M61.9,442.1c-6.2,0-11.6,3.8-13.9,9.2c-10.4,0.3-25.5-1.1-37.8-9.2c-12.3-8.1-20.4-19.2-25.1-27.4
		c1.8-2.5,2.9-5.5,2.9-8.8c0-8.3-6.8-15.1-15.1-15.1s-15.1,6.8-15.1,15.1c0,8,6.3,14.6,14.2,15c5.5,9.8,15.1,23.2,30.2,33.2
		c14.4,9.5,31.2,11.7,43.5,11.7c1.3,0,2.5,0,3.7-0.1c2.7,3.9,7.3,6.5,12.4,6.5c8.3,0,15.1-6.8,15.1-15.1
		C77,448.9,70.2,442.1,61.9,442.1z M-27,411c-2.8,0-5.2-2.3-5.2-5.2c0-2.9,2.3-5.2,5.2-5.2c2.9,0,5.2,2.3,5.2,5.2S-24.2,411-27,411z
		 M61.9,462.4c-2.9,0-5.2-2.3-5.2-5.2c0-2.9,2.3-5.2,5.2-5.2c2.9,0,5.2,2.3,5.2,5.2C67.1,460.1,64.8,462.4,61.9,462.4z"/>
	<path fill="#404041" d="M41,451.2c0,0-2.1-0.1-3.1-0.2c-8.8-0.8-14.9,12.7-5.1,14c2,0.3,5.8,0.6,5.8,0.6s0.6-2.7,1.3-6.9
		C40.6,454.3,41,451.2,41,451.2z"/>
	<path fill="#A6A8AB" d="M26.7,447.1c-1.9,7.1-4.5,13.4-7,18.4c-0.4,0.8,13.7,5,15.1,1.9c2.5-5.5,4.8-12,6.5-19.2
		C42.5,443.4,28,442.4,26.7,447.1z"/>
	<path fill="#A6A8AB" d="M113.5,400.6v1.4c0,3.9-1.2,6.4-3.9,7.7c3.2,1.3,4.5,4.1,4.5,8.2v3.1c0,5.9-3.1,9.1-9.1,9.1h-9.4v-38.2h9.1
		C110.8,391.8,113.5,394.7,113.5,400.6z M101.6,397.3v10.1h2.3c2.2,0,3.6-1,3.6-4v-2.1c0-2.7-0.9-3.9-3.1-3.9H101.6z M101.6,412.8
		v11.7h3.4c2,0,3.1-0.9,3.1-3.8v-3.3c0-3.5-1.1-4.6-3.9-4.6H101.6z"/>
	<path fill="#A6A8AB" d="M130.2,430c-0.3-1-0.5-1.6-0.5-4.7v-6c0-3.5-1.2-4.9-3.9-4.9h-2.1V430h-6v-38.2h9.1c6.2,0,8.9,2.9,8.9,8.8
		v3c0,3.9-1.3,6.5-3.9,7.7c3,1.3,4,4.1,4,8.1v5.9c0,1.9,0.1,3.2,0.7,4.6H130.2z M123.7,397.3V409h2.3c2.2,0,3.6-1,3.6-4v-3.8
		c0-2.7-0.9-3.9-3.1-3.9H123.7z"/>
	<path fill="#A6A8AB" d="M139.6,391.8h6V430h-6V391.8z"/>
	<path fill="#A6A8AB" d="M159,408.7h8.4v12.1c0,6.1-3.1,9.6-8.9,9.6c-5.9,0-8.9-3.5-8.9-9.6V401c0-6.1,3.1-9.6,8.9-9.6
		s8.9,3.5,8.9,9.6v3.7h-5.7v-4.1c0-2.7-1.2-3.8-3.1-3.8s-3.1,1-3.1,3.8v20.6c0,2.7,1.2,3.7,3.1,3.7s3.1-1,3.1-3.7v-7H159L159,408.7
		L159,408.7z"/>
	<path fill="#A6A8AB" d="M177.2,430h-6v-38.2h6v16.4h6.8v-16.4h6.1V430h-6.1v-16.4h-6.8V430z"/>
	<path fill="#A6A8AB" d="M192.8,391.8h18.5v5.5H205V430h-6v-32.7h-6.3L192.8,391.8L192.8,391.8z"/>
	<path fill="#A6A8AB" d="M212.7,401c0-6.1,3.2-9.6,9.1-9.6s9.1,3.5,9.1,9.6v19.8c0,6.1-3.2,9.6-9.1,9.6s-9.1-3.5-9.1-9.6V401z
		 M218.7,421.2c0,2.7,1.2,3.8,3.1,3.8c1.9,0,3.1-1,3.1-3.8v-20.6c0-2.7-1.2-3.8-3.1-3.8c-1.9,0-3.1,1-3.1,3.8V421.2z"/>
	<path fill="#A6A8AB" d="M240.1,402.3V430h-5.4v-38.2h7.5l6.2,22.8v-22.8h5.3V430h-6.2L240.1,402.3z"/>
	<path fill="#58595B" d="M95.6,434.7h9.5c6,0,8.9,3.3,8.9,9.4v19.3c0,6.1-2.9,9.4-8.9,9.4h-9.5V434.7z M101.6,440.1v27.3h3.4
		c1.9,0,3.1-1,3.1-3.7v-19.8c0-2.7-1.1-3.7-3.1-3.7H101.6z"/>
	<path fill="#58595B" d="M117.7,434.7h6v38.2h-6V434.7z"/>
	<path fill="#58595B" d="M137,451.6h8.4v12.1c0,6.1-3.1,9.6-8.9,9.6s-8.9-3.5-8.9-9.6v-19.8c0-6.1,3.1-9.6,8.9-9.6
		c5.9,0,8.9,3.5,8.9,9.6v3.7h-5.7v-4.1c0-2.7-1.2-3.8-3.1-3.8s-3.1,1-3.1,3.8V464c0,2.7,1.2,3.7,3.1,3.7s3.1-1,3.1-3.7v-7H137
		L137,451.6L137,451.6z"/>
	<path fill="#58595B" d="M149.3,434.7h6v38.2h-6V434.7z"/>
	<path fill="#58595B" d="M157.9,434.7h18.5v5.5h-6.3v32.7h-6v-32.7h-6.3L157.9,434.7L157.9,434.7z"/>
	<path fill="#58595B" d="M196.4,472.8h-6.1l-1-6.9h-7.4l-1,6.9h-5.5l6.1-38.2h8.8L196.4,472.8z M182.7,460.7h5.8l-2.9-19.3
		L182.7,460.7z"/>
	<path fill="#58595B" d="M199.2,434.7h6v32.7h9.9v5.5h-15.9V434.7L199.2,434.7z"/>
	<path fill="#A6A8AB" d="M223.6,451.6h7.7v5.5h-7.7v15.8h-6v-38.2h15.9v5.5h-9.9L223.6,451.6L223.6,451.6z"/>
	<path fill="#A6A8AB" d="M242.4,450.7h8.2v5.5h-8.2v11.2h10.4v5.5h-16.4v-38.2h16.4v5.5h-10.4V450.7z"/>
	<path fill="#A6A8AB" d="M264.5,434.2c5.8,0,8.8,3.5,8.8,9.6v1.2h-5.7v-1.6c0-2.7-1.1-3.8-3-3.8s-3,1-3,3.8
		c0,7.9,11.7,9.3,11.7,20.2c0,6.1-3.1,9.6-8.9,9.6c-5.9,0-8.9-3.5-8.9-9.6v-2.3h5.7v2.7c0,2.7,1.2,3.7,3.1,3.7s3.1-1,3.1-3.7
		c0-7.9-11.7-9.3-11.7-20.2C255.7,437.7,258.7,434.2,264.5,434.2z"/>
	<path fill="#A6A8AB" d="M275.1,434.7h18.5v5.5h-6.3v32.7h-6v-32.7h-6.3L275.1,434.7L275.1,434.7z"/>
	<path fill="#A6A8AB" d="M296.3,434.7h6v38.2h-6V434.7z"/>
	<path fill="#A6A8AB" d="M315.7,465.8l4.6-31.1h5.5l-5.9,38.2h-8.9l-5.9-38.2h6.1L315.7,465.8z"/>
	<path fill="#A6A8AB" d="M345.5,472.8h-6.1l-1-6.9H331l-1,6.9h-5.5l6.1-38.2h8.8L345.5,472.8z M331.8,460.7h5.8l-2.9-19.3
		L331.8,460.7z"/>
	<path fill="#A6A8AB" d="M348.3,434.7h6v32.7h9.9v5.5h-15.9V434.7z"/>
	<path fill="#58595B" d="M61.9,442.1c-6.2,0-11.6,3.8-13.9,9.2c-10.4,0.3-25.5-1.1-37.8-9.2c-12.3-8.1-20.4-19.2-25.1-27.4
		c1.8-2.5,2.9-5.5,2.9-8.8c0-8.3-6.8-15.1-15.1-15.1s-15.1,6.8-15.1,15.1c0,8,6.3,14.6,14.2,15c5.5,9.8,15.1,23.2,30.2,33.2
		c14.4,9.5,31.2,11.7,43.5,11.7c1.3,0,2.5,0,3.7-0.1c2.7,3.9,7.3,6.5,12.4,6.5c8.3,0,15.1-6.8,15.1-15.1
		C77,448.9,70.2,442.1,61.9,442.1z M-27,411c-2.8,0-5.2-2.3-5.2-5.2c0-2.9,2.3-5.2,5.2-5.2c2.9,0,5.2,2.3,5.2,5.2S-24.2,411-27,411z
		 M61.9,462.4c-2.9,0-5.2-2.3-5.2-5.2c0-2.9,2.3-5.2,5.2-5.2c2.9,0,5.2,2.3,5.2,5.2C67.1,460.1,64.8,462.4,61.9,462.4z"/>
</g>
<g id="tickled_blog" display="none">
	<g display="inline">
		<g>
			<path fill="#C34B8A" d="M-2.7,431.1c4.1-4.3,8.9-8.2,14.6-11c13.2-6.6,26.8-8,36.3-8c2.4,5.3,7.6,8.9,13.8,8.9
				c8.3,0,15.1-6.8,15.1-15.1c0-8.3-6.8-15.1-15.1-15.1c-5.3,0-9.9,2.7-12.6,6.8c-11.2-0.1-27.6,1.4-43.9,9.6
				c-6.7,3.3-12.4,7.7-17.2,12.5C-9.3,423.3-6.3,427.2-2.7,431.1z M61.9,400.7c2.9,0,5.2,2.3,5.2,5.2c0,2.8-2.3,5.2-5.2,5.2
				c-2.9,0-5.2-2.3-5.2-5.2C56.7,403,59.1,400.7,61.9,400.7z"/>
			<path fill="#C34B8A" d="M-11.7,442.6c-3.8-3.8-7-7.7-9.7-11.5c-2.8,3.9-5,7.7-6.8,11.1c-7.8,0.6-13.9,7.1-13.9,15
				c0,8.3,6.8,15.1,15.1,15.1c8.3,0,15.1-6.8,15.1-15.1c0-3.4-1.1-6.5-3.1-9.1C-14,446.4-12.9,444.5-11.7,442.6z M-27,462.4
				c-2.9,0-5.2-2.3-5.2-5.2c0-2.9,2.3-5.2,5.2-5.2c2.9,0,5.2,2.3,5.2,5.2C-21.9,460.1-24.2,462.4-27,462.4z"/>
		</g>
		<path fill="#A5427B" d="M-21.4,431.1c-0.7,0.9-1.3,1.9-1.3,1.9s1.4,3,3.7,6.5c3,4.5,5.3,6.3,5.3,6.3s1-1.6,2.1-3.3
			C-15.5,438.8-18.7,434.9-21.4,431.1z"/>
	</g>
</g>
<g id="greenyblue_getinvo" display="none">
	<g display="inline">
		<g>
			<path fill="#00A59E" d="M-2.7,431.1c4.1-4.3,8.9-8.2,14.6-11c13.2-6.6,26.8-8,36.3-8c2.4,5.3,7.6,8.9,13.8,8.9
				c8.3,0,15.1-6.8,15.1-15.1c0-8.3-6.8-15.1-15.1-15.1c-5.3,0-9.9,2.7-12.6,6.8c-11.2-0.1-27.6,1.4-43.9,9.6
				c-6.7,3.3-12.4,7.7-17.2,12.5C-9.3,423.3-6.3,427.2-2.7,431.1z M61.9,400.7c2.9,0,5.2,2.3,5.2,5.2c0,2.8-2.3,5.2-5.2,5.2
				c-2.9,0-5.2-2.3-5.2-5.2C56.7,403,59.1,400.7,61.9,400.7z"/>
			<path fill="#00A59E" d="M-11.7,442.6c-3.8-3.8-7-7.7-9.7-11.5c-2.8,3.9-5,7.7-6.8,11.1c-7.8,0.6-13.9,7.1-13.9,15
				c0,8.3,6.8,15.1,15.1,15.1c8.3,0,15.1-6.8,15.1-15.1c0-3.4-1.1-6.5-3.1-9.1C-14,446.4-12.9,444.5-11.7,442.6z M-27,462.4
				c-2.9,0-5.2-2.3-5.2-5.2c0-2.9,2.3-5.2,5.2-5.2c2.9,0,5.2,2.3,5.2,5.2C-21.9,460.1-24.2,462.4-27,462.4z"/>
		</g>
		<path fill="#008278" d="M-21.4,431.1c-0.7,0.9-1.3,1.9-1.3,1.9s1.4,3,3.7,6.5c3,4.5,5.3,6.3,5.3,6.3s1-1.6,2.1-3.3
			C-15.5,438.8-18.7,434.9-21.4,431.1z"/>
	</g>
</g>
<g id="submarine_home">
	<g>
		<g>
			<path fill="#FEBE10" d="M-2.7,431.1c4.1-4.3,8.9-8.2,14.6-11c13.2-6.6,26.8-8,36.3-8c2.4,5.3,7.6,8.9,13.8,8.9
				c8.3,0,15.1-6.8,15.1-15.1c0-8.3-6.8-15.1-15.1-15.1c-5.3,0-9.9,2.7-12.6,6.8c-11.2-0.1-27.6,1.4-43.9,9.6
				c-6.7,3.3-12.4,7.7-17.2,12.5C-9.3,423.3-6.3,427.2-2.7,431.1z M61.9,400.7c2.9,0,5.2,2.3,5.2,5.2c0,2.8-2.3,5.2-5.2,5.2
				c-2.9,0-5.2-2.3-5.2-5.2C56.7,403,59.1,400.7,61.9,400.7z"/>
			<path fill="#FEBE10" d="M-11.7,442.6c-3.8-3.8-7-7.7-9.7-11.5c-2.8,3.9-5,7.7-6.8,11.1c-7.8,0.6-13.9,7.1-13.9,15
				c0,8.3,6.8,15.1,15.1,15.1c8.3,0,15.1-6.8,15.1-15.1c0-3.4-1.1-6.5-3.1-9.1C-14,446.4-12.9,444.5-11.7,442.6z M-27,462.4
				c-2.9,0-5.2-2.3-5.2-5.2c0-2.9,2.3-5.2,5.2-5.2c2.9,0,5.2,2.3,5.2,5.2C-21.9,460.1-24.2,462.4-27,462.4z"/>
		</g>
		<path fill="#DBA214" d="M-21.4,431.1c-0.7,0.9-1.3,1.9-1.3,1.9s1.4,3,3.7,6.5c3,4.5,5.3,6.3,5.3,6.3s1-1.6,2.1-3.3
			C-15.5,438.8-18.7,434.9-21.4,431.1z"/>
	</g>
</g>
<g id="flame_supporters" display="none">
	<g display="inline">
		<g>
			<path fill="#F16A42" d="M-2.7,431.1c4.1-4.3,8.9-8.2,14.6-11c13.2-6.6,26.8-8,36.3-8c2.4,5.3,7.6,8.9,13.8,8.9
				c8.3,0,15.1-6.8,15.1-15.1c0-8.3-6.8-15.1-15.1-15.1c-5.3,0-9.9,2.7-12.6,6.8c-11.2-0.1-27.6,1.4-43.9,9.6
				c-6.7,3.3-12.4,7.7-17.2,12.5C-9.3,423.3-6.3,427.2-2.7,431.1z M61.9,400.7c2.9,0,5.2,2.3,5.2,5.2c0,2.8-2.3,5.2-5.2,5.2
				c-2.9,0-5.2-2.3-5.2-5.2C56.7,403,59.1,400.7,61.9,400.7z"/>
			<path fill="#F16A42" d="M-11.7,442.6c-3.8-3.8-7-7.7-9.7-11.5c-2.8,3.9-5,7.7-6.8,11.1c-7.8,0.6-13.9,7.1-13.9,15
				c0,8.3,6.8,15.1,15.1,15.1c8.3,0,15.1-6.8,15.1-15.1c0-3.4-1.1-6.5-3.1-9.1C-14,446.4-12.9,444.5-11.7,442.6z M-27,462.4
				c-2.9,0-5.2-2.3-5.2-5.2c0-2.9,2.3-5.2,5.2-5.2c2.9,0,5.2,2.3,5.2,5.2C-21.9,460.1-24.2,462.4-27,462.4z"/>
		</g>
		<path fill="#D65E3B" d="M-21.4,431.1c-0.7,0.9-1.3,1.9-1.3,1.9s1.4,3,3.7,6.5c3,4.5,5.3,6.3,5.3,6.3s1-1.6,2.1-3.3
			C-15.5,438.8-18.7,434.9-21.4,431.1z"/>
	</g>
</g>
<g id="suedeshoes_events" display="none">
	<g display="inline">
		<g>
			<path fill="#00AED9" d="M-2.7,431.1c4.1-4.3,8.9-8.2,14.6-11c13.2-6.6,26.8-8,36.3-8c2.4,5.3,7.6,8.9,13.8,8.9
				c8.3,0,15.1-6.8,15.1-15.1c0-8.3-6.8-15.1-15.1-15.1c-5.3,0-9.9,2.7-12.6,6.8c-11.2-0.1-27.6,1.4-43.9,9.6
				c-6.7,3.3-12.4,7.7-17.2,12.5C-9.3,423.3-6.3,427.2-2.7,431.1z M61.9,400.7c2.9,0,5.2,2.3,5.2,5.2c0,2.8-2.3,5.2-5.2,5.2
				c-2.9,0-5.2-2.3-5.2-5.2C56.7,403,59.1,400.7,61.9,400.7z"/>
			<path fill="#00AED9" d="M-11.7,442.6c-3.8-3.8-7-7.7-9.7-11.5c-2.8,3.9-5,7.7-6.8,11.1c-7.8,0.6-13.9,7.1-13.9,15
				c0,8.3,6.8,15.1,15.1,15.1c8.3,0,15.1-6.8,15.1-15.1c0-3.4-1.1-6.5-3.1-9.1C-14,446.4-12.9,444.5-11.7,442.6z M-27,462.4
				c-2.9,0-5.2-2.3-5.2-5.2c0-2.9,2.3-5.2,5.2-5.2c2.9,0,5.2,2.3,5.2,5.2C-21.9,460.1-24.2,462.4-27,462.4z"/>
		</g>
		<path fill="#0299B2" d="M-21.4,431.1c-0.7,0.9-1.3,1.9-1.3,1.9s1.4,3,3.7,6.5c3,4.5,5.3,6.3,5.3,6.3s1-1.6,2.1-3.3
			C-15.5,438.8-18.7,434.9-21.4,431.1z"/>
	</g>
</g>
<g id="otherside_about" display="none">
	<g display="inline">
		<g>
			<path fill="#6FC16F" d="M-2.7,431.1c4.1-4.3,8.9-8.2,14.6-11c13.2-6.6,26.8-8,36.3-8c2.4,5.3,7.6,8.9,13.8,8.9
				c8.3,0,15.1-6.8,15.1-15.1c0-8.3-6.8-15.1-15.1-15.1c-5.3,0-9.9,2.7-12.6,6.8c-11.2-0.1-27.6,1.4-43.9,9.6
				c-6.7,3.3-12.4,7.7-17.2,12.5C-9.3,423.3-6.3,427.2-2.7,431.1z M61.9,400.7c2.9,0,5.2,2.3,5.2,5.2c0,2.8-2.3,5.2-5.2,5.2
				c-2.9,0-5.2-2.3-5.2-5.2C56.7,403,59.1,400.7,61.9,400.7z"/>
			<path fill="#6FC16F" d="M-11.7,442.6c-3.8-3.8-7-7.7-9.7-11.5c-2.8,3.9-5,7.7-6.8,11.1c-7.8,0.6-13.9,7.1-13.9,15
				c0,8.3,6.8,15.1,15.1,15.1c8.3,0,15.1-6.8,15.1-15.1c0-3.4-1.1-6.5-3.1-9.1C-14,446.4-12.9,444.5-11.7,442.6z M-27,462.4
				c-2.9,0-5.2-2.3-5.2-5.2c0-2.9,2.3-5.2,5.2-5.2c2.9,0,5.2,2.3,5.2,5.2C-21.9,460.1-24.2,462.4-27,462.4z"/>
		</g>
		<path fill="#599959" d="M-21.4,431.1c-0.7,0.9-1.3,1.9-1.3,1.9s1.4,3,3.7,6.5c3,4.5,5.3,6.3,5.3,6.3s1-1.6,2.1-3.3
			C-15.5,438.8-18.7,434.9-21.4,431.1z"/>
	</g>
</g>
</svg>
